<?xml version="1.0" encoding="UTF-8"?>
<svg width="773px" height="891px" viewBox="0 0 773 891" version="1.1" xmlns="http://www.w3.org/2000/svg" xmlns:xlink="http://www.w3.org/1999/xlink">
    <title>choose</title>
    <g id="colors" stroke="none" stroke-width="1" fill="none" fill-rule="evenodd">
        <g id="Artboard" transform="translate(-758.000000, -431.000000)" fill-rule="nonzero">
            <g id="choose" transform="translate(758.000000, 431.000000)">
                <path d="M630.559,118.29 C710.859,152 770.199,244.35 772.879,335.38 C775.399,426.57 721.249,516.25 663.749,593.53 C606.419,670.64 545.749,735.18 471.139,763.53 C396.379,791.86 307.539,783.99 243.839,744.42 C180.309,705 142.089,633.76 99.669,563.35 C57.259,493.12 10.999,423.55 1.779,340.57 C-7.611,257.76 20.219,161.21 84.089,124.66 C147.959,88.11 247.689,111.59 348.269,110.75 C448.849,109.91 550.099,84.77 630.559,118.29 Z" id="Path_18" fill="#F2F2F2"></path>
                <path d="M206.739,357.24 C207.389,370.35 206.739,866.95 206.739,866.95 L241.389,866.95 L294.389,540.6 C295.059,530.02 304.719,413.05 304.719,413.05 L243.719,350.39 L206.739,357.24 Z" id="Path_19" fill="#445BE6"></path>
                <path d="M346.779,353.7 C346.779,353.7 386.479,607.7 386.479,618.04 C386.479,628.38 321.479,862.7 321.479,862.7 L288.129,862.7 L316.499,592.54 L219.229,364" id="Path_20" fill="#5A70F9"></path>
                <path d="M181.569,257.61 C179.759,260.24 168.369,286.81 169.229,297.27 C170.549,313.27 181.529,322.12 200.309,331.83 C205.709,331.83 211.469,269.46 211.469,269.46 L194.579,257.61 L181.569,257.61 Z" id="Path_21" fill="#DE8E68"></path>
                <path d="M219.229,188.22 C193.939,207.76 172.489,246.22 176.659,253.3 C178.659,256.61 189.079,262.51 200.979,267.87" id="Path_22" fill="#FCC486"></path>
                <ellipse id="Ellipse_12" fill="#DE8E68" transform="translate(279.551689, 73.574392) rotate(-76.270000) translate(-279.551689, -73.574392) " cx="279.551689" cy="73.5743921" rx="56.13" ry="44.22"></ellipse>
                <path d="M276.759,139.71 C333.009,139.71 355.989,341.41 346.759,353.71 C334.169,370.49 244.089,384 206.759,357.25 C192.399,347 190.219,139.71 276.759,139.71 Z" id="Path_23" fill="#FED385"></path>
                <polyline id="Path_24" fill="#000000" points="206.739 866.95 206.739 890.78 288.129 890.78 288.129 877.32 241.389 866.95"></polyline>
                <polyline id="Path_25" fill="#000000" points="288.129 862.7 288.129 890.78 373.369 890.78 373.369 879.86 321.519 862.7"></polyline>
                <path d="M356.539,244.71 C358.119,246.39 371.789,266.34 373.699,270.6 C377.509,267.35 499.859,164.77 501.869,163.38 C503.879,161.99 507.359,162.11 508.719,163.03 C511.00125,164.523474 511.804815,167.488499 510.589,169.93 C509.509,171.93 494.299,185.31 494.299,185.31 C495.539,186.86 501.889,202.96 493.759,210.52 C488.229,215.67 481.959,217.38 475.929,214.19 C471.929,218.52 376.309,324.19 359.629,324.19 C351.909,324.19 325.429,297.02 313.489,276.55" id="Path_26" fill="#DE8E68"></path>
                <path d="M271.999,199.69 C271.999,232.69 297.999,278.69 306.999,278.69 C315.999,278.69 360.999,245.69 360.999,237.69 C360.999,229.69 325.999,170.69 295.999,170.69 C283.999,170.69 271.999,183.69 271.999,199.69 Z" id="Path_27" fill="#FED892"></path>
                <path d="M268.999,67.7 C286.239,67.83 317.539,34.01 317.539,32.7 C317.539,29.7 312.219,13.85 281.349,13.85 C259.299,13.85 224.609,29.29 224.609,80 C224.609,90.8275663 228.71512,104.021616 237.208975,112.635805 C249.197521,124.794194 267.164022,130.474519 270.669,130.474519 C279.551689,130.474519 297.949,103.35 270.669,93.5" id="Path_28" fill="#000000"></path>
                <path d="M273.779,92.12 C272.144236,93.1820451 270.23844,93.7513538 268.289,93.76 C262.059,93.76 257.009,87.92 257.009,80.7099966 C257.009,73.5 262.059,67.7099966 268.289,67.7099966 C269.455266,67.7090383 270.61271,67.9120987 271.709,68.31" id="Path_29" fill="#DE8E68"></path>
                <rect id="Rectangle_26" fill="#D3D3D3" x="532.319" y="0" width="198.01" height="146.38"></rect>
                <circle id="Ellipse_13" fill="#D3D3D3" cx="631.319" cy="272.52" r="84.3"></circle>
            </g>
        </g>
    </g>
</svg>